# xmcd CD database file
# Copyright (C) 1993-1998 Ti Kan
# 
# Track frame offsets:
#     150
#     22127
#     39595
#     51430
#     65297
#     81142
#     106012
#     130925
#     147620
#     163970
#     182220
#     199432
#     216047
#     233787
# 
# Disc length: 3408 seconds
# 
# Revision: 1
# Processed by: cddbd v1.4b41PL1 Copyright (c) Steve Scherf et al.
# Submitted via: DiscPlay 4.0.4
# 
DISCID=d40d4e0e
DTITLE=Various Artist - The Worlds Greatest Love Songs - Disc 1
DYEAR=1900
DGENRE=
TTITLE0=Careless Whisper          ( George Michael )
TTITLE1=Suddenly          ( Billy Ocean )
TTITLE2=Key Largo          ( Bertie Higgins )
TTITLE3=When I Fall In Love          ( Rick Astley )
TTITLE4=Tonight I Celebrate My Love          ( Peabo Bryson and Roberta Flac
TTITLE4=k )
TTITLE5=True         ( Spandau Ballet )
TTITLE6=I Still Havent Found What Im Looking For     ( The Chimes )
TTITLE7=Feelings          ( Morris Albert )
TTITLE8=Unchained Melody  ( Righteous Brothers )
TTITLE9=Sometimes When We Touch         ( Dan Hill )
TTITLE10=Nothings Gonna Change My Love For You     (
TTITLE11=Close To You        ( The Carpenters )
TTITLE12=Eternal Flame         ( The Bangles )
TTITLE13=You Make Me Feel Brand New          ( The Stylistics )
EXTD=
EXTT0=
EXTT1=
EXTT2=
EXTT3=
EXTT4=
EXTT5=
EXTT6=
EXTT7=
EXTT8=
EXTT9=
EXTT10=
EXTT11=
EXTT12=
EXTT13=
PLAYORDER=
